<?xml version="1.0" encoding="UTF-8"?>
<svg width="20px" height="21px" viewBox="0 0 20 21" version="1.1" xmlns="http://www.w3.org/2000/svg" xmlns:xlink="http://www.w3.org/1999/xlink">
    <title>Icon/View</title>
    <g id="Final-VD" stroke="none" stroke-width="1" fill="none" fill-rule="evenodd">
        <g id="IJME-Article-Page_Author-Details_V2_29042020" transform="translate(-40.000000, -322.000000)" fill="#E01F1F" fill-rule="nonzero">
            <g id="Article-Header" transform="translate(40.000000, 138.000000)">
                <g id="Action-items" transform="translate(0.000000, 184.000000)">
                    <g id="Icon/View">
                        <g id="View">
                            <path d="M19.5555556,9.96296296 C17.8148148,6.44444444 14.1851852,4 10,4 C5.81481481,4 2.18518519,6.44444444 0.444444444,9.96296296 C0.333333333,10.1851852 0.333333333,10.4444444 0.444444444,10.6296296 C2.18518519,14.1481481 5.81481481,16.5925926 10,16.5925926 C14.1851852,16.5925926 17.8148148,14.1481481 19.5555556,10.6296296 C19.6666667,10.4074074 19.6666667,10.1851852 19.5555556,9.96296296 Z M10,14.3703704 C7.74074074,14.3703704 5.92592593,12.5555556 5.92592593,10.2962963 C5.92592593,8.03703704 7.74074074,6.22222222 10,6.22222222 C12.2592593,6.22222222 14.0740741,8.03703704 14.0740741,10.2962963 C14.0740741,12.5555556 12.2592593,14.3703704 10,14.3703704 Z M10,7.7037037 C8.55555556,7.7037037 7.40740741,8.85185185 7.40740741,10.2962963 C7.40740741,11.7407407 8.55555556,12.8888889 10,12.8888889 C11.4444444,12.8888889 12.5925926,11.7407407 12.5925926,10.2962963 C12.5925926,8.85185185 11.4444444,7.7037037 10,7.7037037 L10,7.7037037 Z" id="Shape"></path>
                        </g>
                    </g>
                </g>
            </g>
        </g>
    </g>
</svg>