<?xml version="1.0" encoding="UTF-8"?>
<svg width="512px" height="512px" viewBox="0 0 512 512" version="1.1" xmlns="http://www.w3.org/2000/svg" xmlns:xlink="http://www.w3.org/1999/xlink">
    <title>Brands/twitter</title>
    <defs>
        <path d="M459.37,151.634 C459.695,156.182 459.695,160.731 459.695,165.279 C459.695,303.999 354.112,463.837 161.137,463.837 C101.685,463.837 46.457,446.618 0,416.731 C8.447,417.705 16.568,418.03 25.34,418.03 C74.395,418.03 119.553,401.462 155.614,373.198 C109.482,372.223 70.822,342.01 57.502,300.426 C64,301.4 70.497,302.05 77.32,302.05 C86.741,302.05 96.163,300.75 104.934,298.477 C56.853,288.73 20.791,246.497 20.791,195.492 L20.791,194.193 C34.76,201.99 51.005,206.863 68.222,207.512 C39.958,188.669 21.441,156.507 21.441,120.121 C21.441,100.629 26.638,82.761 35.735,67.167 C87.39,130.842 165.035,172.425 252.1,176.974 C250.476,169.177 249.501,161.056 249.501,152.934 C249.501,95.106 296.283,48 354.435,48 C384.648,48 411.937,60.67 431.105,81.137 C454.82,76.589 477.561,67.817 497.704,55.797 C489.906,80.163 473.338,100.63 451.572,113.624 C472.689,111.351 493.156,105.502 511.998,97.381 C497.706,118.172 479.837,136.689 459.37,151.634 Z" id="path-1"></path>
    </defs>
    <g id="Symbols" stroke="none" stroke-width="1" fill="none" fill-rule="evenodd">
        <g id="Brands/twitter/Hover">
            <mask id="mask-2" fill="white">
                <use xlink:href="#path-1"></use>
            </mask>
            <use id="Mask" fill="#E01F1F" fill-rule="nonzero" xlink:href="#path-1"></use>
        </g>
    </g>
</svg>