<?xml version="1.0" encoding="UTF-8"?>
<svg width="24px" height="24px" viewBox="0 0 24 24" version="1.1" xmlns="http://www.w3.org/2000/svg" xmlns:xlink="http://www.w3.org/1999/xlink">
    <title>Switch Left Default</title>
    <g id="Final-VD" stroke="none" stroke-width="1" fill="none" fill-rule="evenodd">
        <g id="IJME-Landing-Page_V6_02042020" transform="translate(-1350.000000, -1707.000000)">
            <g id="Most-Read-By-Category" transform="translate(0.000000, 1651.000000)">
                <g id="Switch" transform="translate(1350.000000, 56.000000)">
                    <g id="Switch-Left">
                        <path d="M12,0 L24,0 L24,0 L24,24 L12,24 C5.372583,24 8.11624501e-16,18.627417 0,12 C-8.11624501e-16,5.372583 5.372583,1.21743675e-15 12,0 Z" id="Rectangle" fill="#E01F1F"></path>
                        <path d="M9.49230769,5.44871795 L15.8615385,11.7564103 C16.0461538,11.9410256 16.0461538,12.2487179 15.8615385,12.4333333 L9.49230769,18.7410256 C9.30769231,18.925641 9,18.925641 8.81538462,18.7410256 L8.13846154,18.0641026 C7.95384615,17.8794872 7.95384615,17.5717949 8.13846154,17.3871795 L13.1538462,12.4333333 C13.3384615,12.2487179 13.3384615,11.9410256 13.1538462,11.7564103 L8.16923077,6.8025641 C7.98461538,6.61794872 7.98461538,6.31025641 8.16923077,6.12564103 L8.84615385,5.44871795 C9.03076923,5.29487179 9.30769231,5.29487179 9.49230769,5.44871795 L9.49230769,5.44871795 Z" id="Mask-Copy" fill="#FFFFFF" transform="translate(12.000000, 12.106410) scale(-1, 1) translate(-12.000000, -12.106410) "></path>
                    </g>
                </g>
            </g>
        </g>
    </g>
</svg>