<?xml version="1.0" encoding="UTF-8"?>
<svg width="24px" height="24px" viewBox="0 0 24 24" version="1.1" xmlns="http://www.w3.org/2000/svg" xmlns:xlink="http://www.w3.org/1999/xlink">
    <title>Switch Right</title>
    <defs>
        <path d="M8.82564103,5.44871795 L15.1948718,11.7564103 C15.3794872,11.9410256 15.3794872,12.2487179 15.1948718,12.4333333 L8.82564103,18.7410256 C8.64102564,18.925641 8.33333333,18.925641 8.14871795,18.7410256 L7.47179487,18.0641026 C7.28717949,17.8794872 7.28717949,17.5717949 7.47179487,17.3871795 L12.4871795,12.4333333 C12.6717949,12.2487179 12.6717949,11.9410256 12.4871795,11.7564103 L7.5025641,6.8025641 C7.31794872,6.61794872 7.31794872,6.31025641 7.5025641,6.12564103 L8.17948718,5.44871795 C8.36410256,5.29487179 8.64102564,5.29487179 8.82564103,5.44871795 L8.82564103,5.44871795 Z" id="path-1"></path>
    </defs>
    <g id="Final-VD" stroke="none" stroke-width="1" fill="none" fill-rule="evenodd">
        <g id="IJME-Landing-Page_V6_02042020" transform="translate(-1376.000000, -1707.000000)">
            <g id="Most-Read-By-Category" transform="translate(0.000000, 1651.000000)">
                <g id="Switch" transform="translate(1350.000000, 56.000000)">
                    <g id="Switch-Right-Default" transform="translate(26.000000, 0.000000)">
                        <path d="M12,0 L24,0 L24,0 L24,24 L12,24 C5.372583,24 8.11624501e-16,18.627417 0,12 C-8.11624501e-16,5.372583 5.372583,1.21743675e-15 12,0 Z" id="Rectangle" fill="#E01F1F" transform="translate(12.000000, 12.000000) scale(-1, 1) translate(-12.000000, -12.000000) "></path>
                        <mask id="mask-2" fill="white">
                            <use xlink:href="#path-1"></use>
                        </mask>
                        <use id="Mask" fill="#FFFFFF" xlink:href="#path-1"></use>
                    </g>
                </g>
            </g>
        </g>
    </g>
</svg>