<?xml version="1.0" encoding="UTF-8"?>
<svg width="512px" height="512px" viewBox="0 0 512 512" version="1.1" xmlns="http://www.w3.org/2000/svg" xmlns:xlink="http://www.w3.org/1999/xlink">
    <title>Icon/Download PDF</title>
    <defs>
        <path d="M245.9,256.1 C240.9,240.1 241,209.2 243.9,209.2 C252.3,209.2 251.5,246.1 245.9,256.1 Z M244.2,303.3 C236.5,323.5 226.9,346.6 215.8,366 C234.1,359 254.8,348.8 278.7,344.1 C266,334.5 253.8,320.7 244.2,303.3 Z M150.1,428.1 C150.1,428.9 163.3,422.7 185,387.9 C178.3,394.2 155.9,412.4 150.1,428.1 Z M312,160 L448,160 L448,488 C448,501.3 437.3,512 424,512 L88,512 C74.7,512 64,501.3 64,488 L64,24 C64,10.7 74.7,0 88,0 L288,0 L288,136 C288,149.2 298.8,160 312,160 Z M304,331.8 C284,319.6 270.7,302.8 261.3,278 C265.8,259.5 272.9,231.4 267.5,213.8 C262.8,184.4 225.1,187.3 219.7,207 C214.7,225.3 219.3,251.1 227.8,284 C216.2,311.6 199.1,348.6 187,369.8 C186.9,369.8 186.9,369.9 186.8,369.9 C159.7,383.8 113.2,414.4 132.3,437.9 C137.9,444.8 148.3,447.9 153.8,447.9 C171.7,447.9 189.5,429.9 214.9,386.1 C240.7,377.6 269,367 293.9,362.9 C315.6,374.7 341,382.4 357.9,382.4 C387.1,382.4 389.1,350.4 377.6,339 C363.7,325.4 323.3,329.3 304,331.8 L304,331.8 Z M441,105 L343,7 C338.5,2.5 332.4,0 326,0 L320,0 L320,128 L448,128 L448,121.9 C448,115.6 445.5,109.5 441,105 Z M366.9,360.3 C371,357.6 364.4,348.4 324.1,351.3 C361.2,367.1 366.9,360.3 366.9,360.3 Z" id="path-1"></path>
    </defs>
    <g id="Symbols" stroke="none" stroke-width="1" fill="none" fill-rule="evenodd">
        <g id="Icon/Download-PDF/Default">
            <mask id="mask-2" fill="white">
                <use xlink:href="#path-1"></use>
            </mask>
            <use id="Mask" fill="#262020" fill-rule="nonzero" xlink:href="#path-1"></use>
        </g>
    </g>
</svg>