<?xml version="1.0" encoding="UTF-8"?>
<svg width="512px" height="512px" viewBox="0 0 512 512" version="1.1" xmlns="http://www.w3.org/2000/svg" xmlns:xlink="http://www.w3.org/1999/xlink">
    <title>Icon/How to cite item</title>
    <defs>
        <path d="M256,8 C119.033,8 8,119.033 8,256 C8,392.967 119.033,504 256,504 C392.967,504 504,392.967 504,256 C504,119.033 392.967,8 256,8 Z M373.134,354.753 C371.542,356.62 333.358,400.484 263.283,400.484 C178.591,400.484 118.799,337.224 118.799,254.917 C118.799,173.614 180.803,111.516 262.561,111.516 C329.518,111.516 364.526,148.831 365.983,150.42 C369.675409,154.444597 370.18425,160.454927 367.221,165.043 L344.841,199.698 C340.792,205.965 332.067,207.049 326.607,201.993 C326.374,201.779 300.078,178.113 264.727,178.113 C218.611,178.113 190.811,211.688 190.811,254.195 C190.811,293.797 216.325,333.887 265.088,333.887 C303.785,333.887 330.368,305.549 330.632,305.262 C335.764,299.697 344.691,300.229 349.14,306.315 L373.687,339.887 C376.966563,344.372768 376.73777,350.523285 373.134,354.753 L373.134,354.753 Z" id="path-1"></path>
    </defs>
    <g id="Symbols" stroke="none" stroke-width="1" fill="none" fill-rule="evenodd">
        <g id="Icon/How-to-cite-item/Default">
            <mask id="mask-2" fill="white">
                <use xlink:href="#path-1"></use>
            </mask>
            <use id="Mask" fill="#262020" fill-rule="nonzero" xlink:href="#path-1"></use>
        </g>
    </g>
</svg>