<?xml version="1.0" encoding="UTF-8"?>
<svg width="512px" height="512px" viewBox="0 0 512 512" version="1.1" xmlns="http://www.w3.org/2000/svg" xmlns:xlink="http://www.w3.org/1999/xlink">
    <title>Icon/Post a Comment</title>
    <defs>
        <path d="M199.111013,347.377444 C165.689696,347.377444 134.198156,341.369242 106.539503,330.764496 C78.6506278,352.573654 44.4337558,365.863124 8.08266268,369.672552 C7.81985443,369.700076 7.55579899,369.714307 7.29155195,369.714307 C3.97066471,369.714307 0.970666187,367.495101 0.165333252,364.329757 C-0.705777429,360.810833 2.02133234,358.644931 4.72177545,356.063261 C18.0702133,343.235756 34.2524275,333.151608 40.5813133,290.058333 C15.124437,265.671059 0,235.231164 0,202.189166 C0,121.994826 89.1528449,57 199.111013,57 C309.069181,57 398.222026,121.993937 398.222026,202.189166 C398.222026,282.439475 309.069181,347.377444 199.111013,347.377444 Z M507.61486,442.590066 C495.2202,430.928132 480.193541,421.760806 474.317099,382.585343 C535.479736,325.22359 520.691298,243.165401 440.829116,198.630264 C440.856671,199.81538 440.887782,200.999608 440.887782,202.189166 C440.887782,311.01108 325.70295,394.432063 188.219463,389.837295 C222.104779,417.342828 271.765199,434.69403 327.110061,434.69403 C358.144712,434.69403 387.386475,429.23219 413.069129,419.59135 C438.966005,439.417615 470.738434,451.49887 504.493973,454.961826 C507.859305,455.312741 511.038859,453.209027 511.845081,450.104982 C512.654858,446.905879 510.122415,444.9372 507.61486,442.590066 L507.61486,442.590066 Z" id="path-1"></path>
    </defs>
    <g id="Symbols" stroke="none" stroke-width="1" fill="none" fill-rule="evenodd">
        <g id="Icon/Post-a-Comment/Default">
            <mask id="mask-2" fill="white">
                <use xlink:href="#path-1"></use>
            </mask>
            <use id="Mask" fill="#262020" fill-rule="nonzero" xlink:href="#path-1"></use>
        </g>
    </g>
</svg>